<svg xmlns="http://www.w3.org/2000/svg" fill="none" viewBox="0 0 200 200"><g id="we-got-a-problem"><g id="Group"><g id="Group_2"><g id="Group_3"><path id="Vector" fill="#fb3d5a" d="M116.14 143.33C115.04 140.4 109.57 142.33 104.73 138.33C102.73 136.66 100.73 130.03 100.73 130.03C100.73 130.03 105.73 133.59 108.62 130.97C111.51 128.35 110.2 120.76 104.62 122.72C98.7 124.82 97.16 122.57 90.4 120.26C83.64 117.95 79.61 122.19 79.61 122.19C69.22 120.96 62.86 123.08 57.99 125.77C53.69 120.77 45.69 124.35 41.71 128.1C37.1 132.44 37.99 135.98 38.52 137.1C32.69 141.62 32.52 146.21 32.93 149.62C33.2681 153.206 34.7094 156.599 37.0554 159.331C39.4014 162.064 42.5368 164.003 46.03 164.88C46.03 164.88 45.87 172.38 47.95 173.06C50.03 173.74 50.84 171.15 54.95 169.06C59.39 167.9 64.1 163.3 61.62 160.06C67.15 163.49 75.49 161.4 76.18 152.5C78.9 157.78 91.39 157.14 98.18 154.21C99 160.5 97 166.45 94.28 169C90.28 172.72 86.99 172.42 84.94 174.18C82.89 175.94 87.76 181.33 98.94 174.39C108.85 168.23 109.57 157.66 102.68 149.11C109.52 151 117.28 146.36 116.14 143.33ZM58.89 144.44C58.82 144.6 57.53 137.16 64.14 133.71C68.69 131.33 73.95 132.95 74.54 136.58C75.31 141.34 62.25 135.66 58.89 144.44V144.44Z"></path><path id="Vector_2" fill="#fb3d5a" d="M43.2502 114.23C40.1102 112.09 45.3802 94.67 51.1602 94.95C57.9602 95.28 68.3202 110.23 64.6902 115.63C62.7002 118.59 48.5002 117.8 43.2502 114.23Z"></path><path id="Vector_3" fill="#fb3d5a" d="M25.4202 102C24.0302 101 26.3602 93 28.9102 93.09C31.9102 93.24 36.4902 100.15 34.9102 102.65C34.0002 104 27.7402 103.67 25.4202 102Z"></path><path id="Vector_4" fill="#fb3d5a" d="M70.2502 97.32C69.1002 96.52 71.0202 90.06 73.1202 90.16C75.5902 90.29 79.3502 95.83 78.0302 97.84C77.3102 98.94 72.1502 98.64 70.2502 97.32Z"></path><path id="Vector_5" fill="#fb3d5a" d="M137.52 30.53C137.52 30.53 147.09 24.07 149.96 25.65C153.33 27.51 151.49 28.75 153.33 30.41C155.74 32.59 165.77 29.18 167.71 31.41C170.29 34.41 165.71 37.5 167.06 40.48C168.41 43.46 175.35 43.95 175.35 45.61C175.35 47.82 172.35 47.52 172.12 49.61C172 50.52 173.75 54.55 172.39 55.24C171.03 55.93 165.83 49.58 162.24 50.18C159.61 50.62 157.62 53.92 155.07 53.85C151.14 53.74 143.87 46.54 141.45 48.09C139.03 49.64 138.26 53.84 135.73 53.74C133.2 53.64 130.21 46.92 128.32 47.39C126.43 47.86 123 53.94 121 53.52C118.848 52.9062 116.618 52.6097 114.38 52.64C111.94 52.73 106.11 56.14 102.28 55.37C100.28 54.97 98.72 52.73 97.01 53.18C94.19 53.91 91.78 58.33 90.62 57.51C89.67 56.84 91.38 53.95 90.62 52.45C90.18 51.62 87.62 51.15 87.33 49.67C86.94 48 94.37 45.54 94.53 43C94.69 40.46 93.13 41 93.96 38.39C94.79 35.78 102.5 37.45 105.22 38.01C108.67 42.39 114.81 48.01 128.81 43.48C136.44 41 137.52 30.53 137.52 30.53Z"></path><path id="Vector_6" fill="#001434" d="M130.58 91.9C128.45 92.61 126.53 92.96 124.64 91.64C124.502 91.5402 124.345 91.4687 124.178 91.4295C124.012 91.3903 123.84 91.3842 123.671 91.4116C123.503 91.439 123.341 91.4993 123.196 91.5891C123.051 91.6789 122.925 91.7965 122.825 91.935C122.725 92.0736 122.654 92.2304 122.615 92.3966C122.575 92.5628 122.569 92.7351 122.597 92.9036C122.624 93.0722 122.684 93.2336 122.774 93.3789C122.864 93.5241 122.982 93.6502 123.12 93.75C125.95 95.75 128.93 95.24 131.52 94.33C131.842 94.2054 132.102 93.9578 132.242 93.6418C132.381 93.3258 132.39 92.9673 132.265 92.645C132.14 92.3228 131.893 92.0633 131.577 91.9235C131.261 91.7838 130.902 91.7754 130.58 91.9V91.9Z"></path><path id="Vector_7" fill="#001434" d="M130.37 79.92C128.587 79.0941 126.592 78.8425 124.66 79.2C122.66 79.58 121.17 80.64 121.81 81.68C121.984 81.9753 122.265 82.1921 122.595 82.2853C122.925 82.3784 123.278 82.3407 123.58 82.18C125.16 81.18 127.72 81.44 129.72 82.35C130.004 82.3437 130.277 82.2457 130.5 82.0706C130.723 81.8955 130.883 81.6527 130.957 81.3788C131.03 81.105 131.012 80.8147 130.907 80.5516C130.801 80.2886 130.613 80.067 130.37 79.92V79.92Z"></path><path id="Vector_8" fill="#001434" d="M102.54 63.4901C104.75 62.7101 106.05 61.82 109.01 62.12C110.92 62.32 110.94 59.6801 109.14 59.4301C106.657 59.2271 104.169 59.774 102 61C100.49 61.82 101.5 63.8701 102.54 63.4901Z"></path><path id="Vector_9" fill="#001434" d="M107 64.81C93.7301 66.48 97.2101 84.41 109.07 83.41C121.31 82.38 118.93 63.32 107 64.81ZM114.14 77.06C113.676 78.2097 112.856 79.1805 111.8 79.83C108.8 77.25 104.18 73.92 101.38 71.96C104.3 63.37 117.87 67.69 114.18 77.06H114.14Z"></path><path id="Vector_10" fill="#001434" d="M123.86 76.7C123.988 76.8332 124.142 76.9378 124.313 77.0068C124.483 77.0758 124.667 77.1078 124.851 77.1004C125.035 77.0931 125.216 77.0468 125.381 76.9644C125.545 76.8821 125.691 76.7656 125.807 76.6228C125.924 76.4799 126.008 76.314 126.056 76.1359C126.103 75.9578 126.112 75.7717 126.082 75.5899C126.052 75.4081 125.984 75.2347 125.882 75.0813C125.78 74.9279 125.646 74.7979 125.49 74.7C121.54 72.22 125.26 67.87 129.06 69.47C130.62 70.13 131.68 67.64 130.06 67.08C128.924 66.6697 127.706 66.5338 126.507 66.6832C125.308 66.8327 124.161 67.2633 123.16 67.94C120.46 70 119.79 73.92 123.86 76.7Z"></path><path id="Vector_11" fill="#001434" d="M145.87 61.23C131.87 61.17 133.73 81.6 146.43 80.23C158.66 79 157.39 61.28 145.87 61.23ZM149.35 76.63C146.45 74.05 141.68 70.63 138.74 68.56C143.57 57.3 159.46 68.21 149.35 76.63Z"></path><path id="Vector_12" fill="#001434" d="M133.25 84.72C131.8 85.91 128.66 87.17 127.66 84.83C127.552 84.5777 127.367 84.3657 127.132 84.224C126.897 84.0822 126.624 84.0179 126.35 84.04C123.87 84.2 125.77 87.89 121.54 84.9C120.16 83.9 118.91 85.65 119.96 86.97C121.21 88.55 125.14 90.13 126.64 87.75C128.94 90.75 133.64 88.15 135.06 86.35C135.254 86.107 135.348 85.7989 135.323 85.4888C135.298 85.1787 135.155 84.89 134.923 84.6818C134.692 84.4736 134.39 84.3616 134.079 84.3687C133.768 84.3758 133.471 84.5015 133.25 84.72Z"></path><path id="Vector_13" fill="#001434" d="M139.75 58.37C141.942 57.8391 144.238 57.9151 146.39 58.59C147.39 58.85 148.19 56.92 146.97 56.13C145.1 54.91 140.73 55.13 139.06 55.86C138.895 55.9053 138.741 55.9827 138.606 56.0876C138.471 56.1925 138.358 56.323 138.274 56.4716C138.189 56.6201 138.135 56.7839 138.114 56.9535C138.092 57.1231 138.105 57.2952 138.15 57.46C138.195 57.6248 138.273 57.7791 138.378 57.914C138.483 58.049 138.613 58.1619 138.762 58.2464C138.91 58.3309 139.074 58.3853 139.244 58.4065C139.413 58.4277 139.585 58.4153 139.75 58.37V58.37Z"></path><path id="Vector_14" fill="#001434" d="M28.73 99.65C27.33 99.77 27.35 101.65 29.1 101.5C30.54 101.31 30.47 99.38 28.73 99.65Z"></path><path id="Vector_15" fill="#001434" d="M53.6702 110.5C55.3402 110.11 55.4202 109.74 55.3302 105.8C55.2402 101.55 54.8402 94.9701 50.3902 95.8001C45.7702 95.9301 49.6602 111.46 53.6702 110.5Z"></path><path id="Vector_16" fill="#001434" d="M45.2002 154.41C43.4302 154.59 42.8902 155.05 42.9902 155.96C43.0702 156.63 43.5802 157.21 44.9902 157.11C46.1402 157.03 48.1802 158.17 48.9002 160.42C49.6202 162.67 51.7702 161.5 51.4602 159.65C51.1102 157.17 48.5702 154.07 45.2002 154.41Z"></path><path id="Vector_17" fill="#001434" d="M54.2601 111.9C50.8001 112.57 51.1501 117.36 54.4601 117.13C58.1701 116.87 58.0001 111.17 54.2601 111.9Z"></path><path id="Vector_18" fill="#001434" d="M29.6002 97.28C29.5842 96.4936 29.4108 95.7183 29.0902 95C28.8102 94.6 27.5702 94.61 27.0902 95C26.2602 95.65 26.9502 99.1 28.2302 99.09C29.0802 99 29.7702 98.79 29.6002 97.28Z"></path><path id="Vector_19" fill="#001434" d="M192.75 141.11C190.122 140.8 187.477 140.647 184.83 140.65C192.38 130.89 195 124.54 195 116.65C195 100.82 179.77 83.23 168.17 75.79C173.08 73.51 176.98 68.34 176.49 62.63C180.21 60.89 178.38 54.92 178.96 51.56C180.19 49.29 183.76 48.86 183.03 44.5C182.43 37.97 170.63 41.75 173.24 34.6C173.78 32.54 174.53 29.71 172.3 27.42C169.99 24.47 160.57 26.82 157.45 25.28C156.05 14.91 149.62 16.86 142.13 21.49C127.79 6.00002 101 11.24 83.0901 23C74.4001 28.76 61.3301 43.32 69.9401 75.86C58.7701 75.67 44.9401 75.36 33.1901 75.27C4.42011 75 1.31012 78.38 7.90012 102.18C9.90012 113.13 12.9001 126.91 14.6401 134.66C16.3701 141.66 16.4301 149.04 22.1101 152.02C16.5901 161.61 22.8001 164.02 30.1101 159.85C32.5589 163.299 35.8595 166.055 39.6901 167.85C39.0501 182.58 47.0701 178.76 53.6901 170.94C55.9901 169.39 58.6301 169.94 61.1401 167.65C72.2101 175.07 81.9101 170.12 94.3201 166.98C91.1001 172.76 74.6801 173.59 73.3201 178.7C71.8601 184.29 75.4401 187.84 79.9101 188.13C90.3001 188.8 107.22 178.98 108.91 163.7C116.59 161.85 135.41 157.64 139.72 155.38C141.87 154.38 141.89 151.51 141.89 149.95C141.99 146.72 140.57 145.95 132.36 143.01C148.1 144.11 180.98 143.2 192.36 143.25C194 143.26 194.45 141.09 192.75 141.11ZM170.61 71.41C165.74 75.13 163.47 73.68 163.37 78.07C163.08 91.61 142.44 97.89 125.93 98.78C123.2 98.92 120.86 98.68 118.43 98.59C110.78 98.31 105.56 95.95 102.76 93.59C99.6896 91.1265 97.2005 88.0159 95.4701 84.48C92.5293 77.7126 91.8831 70.169 93.6301 63C96.7301 59.16 96.4701 58 97.7801 57.8C98.7801 57.62 101.42 59.65 103.78 59.21C107.36 58.56 111.08 54.73 114.04 53.68C117.04 54.18 119.53 58.68 123.04 57.97C126.63 57.65 127.68 52.07 130.28 50.97C132.08 51.6 133.16 54.8 136.07 54.44C142.27 53.31 139.29 46.23 146.35 53.38C149.86 57.08 152.61 58.5 155.47 58.31C158.9 58.09 160.64 54.95 162.92 55.01C165.73 55.08 170.01 62.64 173.92 63.01C174.127 64.576 173.932 66.169 173.353 67.6386C172.774 69.1083 171.83 70.4062 170.61 71.41ZM143.21 23.93C146.04 22.02 150.89 19.85 152.48 20.38C154.68 21.12 153.9 25.38 155.48 27.01C157.62 29.94 167.73 27.22 170.48 29.27C172.95 31.83 168.34 36.8 171.24 39.72C173.17 42.42 179.85 41.88 180.51 44.95C180.41 49.27 175.04 47.82 176.32 55.28C177.04 68.7 167.51 51.49 162.69 52.4C159.44 52.8 158.41 55.92 154.91 55.87C149.91 55.5 142.36 42 137.99 50.21C137.35 51.21 136.99 51.75 135.94 51.82C133.83 51.68 132.87 47.92 130.08 48.36C126.5 48.5 125.54 54.5 122.66 55.36C119.99 55.36 117.31 50.89 114.26 51.04C110 51.25 105.17 59.04 100.26 55.62C99.8964 55.3438 99.4793 55.146 99.0352 55.0393C98.5911 54.9326 98.1297 54.9192 97.6801 55C94.3701 55.3 91.4901 64.47 88.1401 62.74C85.4901 61.61 89.3901 56.82 85.9801 53.54C82.9801 50.69 79.2901 48.97 85.3101 46.73C98.7801 41.73 75.5701 33.73 101.21 34.37C106.38 50.9 137.89 50.18 138.72 31.37C141.83 30.15 144 27.21 143.21 23.93V23.93ZM84.5301 25.12C98.0801 16.05 114.33 12.32 127.83 15.84C135.62 17.84 145.16 23.54 138.39 28.65C137.942 27.0478 137.154 25.5609 136.08 24.29C134.97 23.02 133.25 24.38 134.39 25.62C137.06 28.5 136.88 34.92 134.03 37.62C133.323 35.8814 132.351 34.2623 131.15 32.82C130.927 32.5548 130.608 32.389 130.263 32.3589C129.918 32.3289 129.575 32.4372 129.31 32.66C129.045 32.8828 128.879 33.2018 128.849 33.5469C128.819 33.892 128.927 34.2348 129.15 34.5C130.23 35.78 131.79 38.24 131.88 39.83C129.242 41.8514 126.089 43.0917 122.78 43.41C122.427 41.0466 121.69 38.7566 120.6 36.63C120.444 36.3224 120.171 36.0895 119.843 35.9826C119.515 35.8757 119.158 35.9035 118.85 36.06C118.542 36.2165 118.31 36.4888 118.203 36.817C118.096 37.1452 118.124 37.5024 118.28 37.81C119.209 39.6185 119.847 41.5625 120.17 43.57C111.73 43.65 103.06 38.78 102.85 28.91C102.84 28.5643 102.693 28.2368 102.442 27.9989C102.191 27.7609 101.856 27.6319 101.51 27.64C99.5101 27.85 100.42 30.41 100.51 31.7C90.0801 31.11 83.0301 33.5 86.7101 40.64C88.0601 43.27 86.3801 43.27 84.2501 44.33C74.6801 48.33 79.5001 52.04 84.8301 56.39C85.1201 58.48 83.8301 61.39 85.2201 63.56C80.3401 65.43 73.3001 66.1 70.5601 66.29C67.6601 47.61 72.4701 33.19 84.5301 25.12ZM19.4101 143.57C16.2001 130.27 13.7101 118.22 10.4601 101.72C9.46012 95.82 5.79012 85.29 8.56012 81.51C16.1701 74.94 47.6801 78.82 60.7801 78.26C69.7401 79 77.3301 77 83.0001 81.44C88.4001 85.71 88.6601 106.04 91.8701 113.15C88.4801 112.05 82.6201 114.46 80.6801 115.98C78.6367 115.768 76.5783 115.742 74.5301 115.9C71.0601 106.9 57.5301 87.35 49.0201 89.73C41.5701 91.82 35.1101 113.07 34.5701 120.92C29.1901 124.92 28.7601 132.12 30.7001 134.6C22.9401 140.6 26.1401 147.42 23.5201 149.82C22.0001 149.13 20.1701 146.73 19.4101 143.57ZM98.4601 118.92C105.22 123.56 111.24 117.73 113.11 122.37C114.59 126.04 108.19 130.37 106.03 131.37C100.03 125.47 95.0301 118.31 84.8401 116.61C89.5301 114 95.0801 116.6 98.4601 118.92V118.92ZM38.4601 128.35L39.4601 128.91C37.011 129.828 34.7329 131.15 32.7201 132.82C28.8701 123.28 45.4201 116.64 52.9101 120.82C59.7201 123.63 55.4801 129.18 48.5101 128.66C43.8201 128.35 42.0301 127.47 39.8501 126.15C39.5598 126 39.2236 125.965 38.9085 126.051C38.5934 126.138 38.3225 126.34 38.1497 126.618C37.977 126.895 37.915 127.227 37.9763 127.548C38.0375 127.869 38.2174 128.156 38.4801 128.35H38.4601ZM37.5601 118.99C38.7201 112.39 44.5601 93.71 50.0901 92.55C55.6201 91.39 68.5101 107.82 71.4201 116.18C66.4603 116.566 61.6625 118.122 57.4201 120.72C54.3401 117.28 44.9001 115.18 37.5801 119L37.5601 118.99ZM61.4301 163.17C58.5401 168.17 55.5501 166.29 51.9901 168.92C47.7101 172.92 41.7301 180.68 42.1501 168.92C44.1501 170.28 47.4201 168.73 44.6501 166.92C38.8101 165.5 31.6501 160.29 30.3901 154.35C30.3158 154.013 30.1113 153.718 29.821 153.531C29.5307 153.344 29.1781 153.279 28.8401 153.35C26.8901 153.97 28.3001 156.35 28.7701 157.6C27.0501 158.37 24.5001 160.33 23.0101 159.38C20.5901 157.83 27.0801 150.56 27.2801 146.44C27.8401 138.52 36.7801 131.44 43.4301 130.54C49.6601 132.7 60.7001 130.05 58.7201 123.04C68.0101 116.63 88.2101 116.68 96.8001 125.43C94.3201 123.67 89.0701 123.49 85.8001 124.83C82.0601 126.35 79.6901 128.64 81.0501 130.19C81.1746 130.311 81.3229 130.404 81.4854 130.464C81.648 130.524 81.8213 130.55 81.9943 130.54C82.1674 130.53 82.3363 130.483 82.4906 130.404C82.6448 130.325 82.7808 130.215 82.8901 130.08C92.1901 120.99 103.43 132.96 110.23 138.15C112.82 139.7 120.83 137.88 121.75 140.8C122.84 146.94 113.27 150.8 108.04 150.64C105.04 150.46 101.18 147.03 99.9601 145.72C98.7401 144.41 96.8801 146.29 98.0601 147.5C98.8362 148.307 99.6647 149.062 100.54 149.76C98.1101 156.84 86.0701 158.82 78.3301 157.64C78.5701 152.64 76.7701 149.32 73.4801 146.21C83.1801 137.92 72.6101 125.78 62.1501 133.7C57.8101 136.99 54.5901 142.64 56.9101 146.7C57.0885 146.986 57.3711 147.192 57.6984 147.274C58.0256 147.356 58.3718 147.307 58.6638 147.138C58.9559 146.969 59.1709 146.694 59.2635 146.369C59.3561 146.045 59.319 145.698 59.1601 145.4C57.7901 143.01 59.8601 138.63 63.6901 135.83C65.5901 133.51 74.9201 131.99 74.7701 139.02C74.4401 141.75 71.7001 144.75 69.1201 146.5C67.2901 148.25 70.2501 149.81 71.5101 147.98C81.7401 156.34 71.4001 169.06 61.9001 160.1C59.3801 158.48 58.7201 161.83 61.4501 163.17H61.4301ZM89.0601 165.68C78.0601 168.48 72.5201 171.53 62.9201 165.63C63.1601 165.303 63.4001 164.943 63.6401 164.55C67.8801 167.35 76.3401 164.42 77.6401 160.16C83.5701 161.36 92.6401 159.8 96.8301 157.5C97.0379 159.631 96.775 161.782 96.0601 163.8C93.4701 164.48 91.1601 165.11 89.0801 165.68H89.0601ZM94.5501 180.62C90.3001 183.09 85.6501 185.52 81.4001 185.62C77.6301 185.71 75.2101 183.56 75.7901 180.2C76.1801 177.93 79.3801 177.2 81.6001 176.26C90.2001 172.74 100.98 172.01 99.2101 155.83C100.659 154.579 101.831 153.04 102.65 151.31C109.58 157.91 106.86 173.31 94.5701 180.62H94.5501ZM139.23 149.56C139.23 150.36 139.3 152.56 138.61 152.98C134.83 155.08 116.71 159.16 109 160.98C108.854 158.294 108.248 155.652 107.21 153.17C113.87 153.73 122.78 149.68 124.4 143.04C133.58 146.16 139.28 147.75 139.25 149.56H139.23ZM124.23 140.26C121.65 133.26 112.03 139.11 108.08 133.26C113.69 130.37 116.82 124.77 115.3 121.26C113.85 117.88 111.38 117.79 106.04 118.43C101.39 118.98 99.1501 115.51 94.9201 114.09C91.8101 106.22 91.4501 96.09 89.4601 88.44C87.6601 81.25 84.1001 76 72.6401 75.88C71.9901 73.5 71.4501 71.17 71.0201 68.88C74.3801 68.63 82.5701 67.8 87.7201 65.33C88.7047 65.6436 89.769 65.594 90.7201 65.19C88.0001 84 97.9001 100 117.53 100.86C113.71 104.64 114.08 108.61 108.79 104.28C108.55 104.031 108.225 103.88 107.88 103.856C107.535 103.832 107.193 103.937 106.92 104.15C106.05 105.01 106.67 106.37 109.1 107.88C112.1 109.74 114.3 109.97 116.91 106.31C119.23 103.08 120.37 101.22 121.54 101.17C124.54 101.02 124.1 108.67 130.09 109.71C133.16 110.25 135.47 108.45 137.31 106.4C138.45 105.13 136.93 103.3 135.55 104.52C132.92 106.85 128.89 109.52 125.77 101.17C141.77 100.61 166.2 94.53 165.77 77.45C172.67 81.13 183.68 90.65 188.54 100.89C178.54 101.09 163.54 106.08 151.82 117.15C149.82 113.75 149.1 111.38 147.51 111.74C146.17 112.04 146.34 114.08 149.38 119.09C141.18 127.73 138.16 137.09 137.68 140.54C133 140.38 128 140.25 124.27 140.26H124.23ZM140.63 140.66C142.014 134.084 145.112 127.992 149.61 123C159.88 111.31 175.01 102.85 189.75 103.5C196.58 119.76 190.27 129.64 181.42 140.63C152.68 140.86 166.64 141.6 140.67 140.66H140.63Z"></path><path id="Vector_20" fill="#001434" d="M48.23 143.3C48.01 140.78 46.03 139.3 43.23 139.5C41.08 139.65 39.98 141.39 40.93 142.23C41.88 143.07 42.65 141.5 44.12 142.16C44.4146 142.29 44.6695 142.495 44.8587 142.755C45.048 143.016 45.1649 143.322 45.1974 143.642C45.2299 143.962 45.177 144.285 45.0439 144.578C44.9109 144.871 44.7025 145.124 44.44 145.31C41.49 144.22 40.96 147.45 42.44 149.72C44.33 153.14 49.12 151.04 46.69 147.13C47.69 145.8 49.39 145.05 50.27 147.35C50.84 148.85 49.96 150.48 51.27 150.97C53.86 152 54.39 142.76 48.23 143.3Z"></path><path id="Vector_21" fill="#001434" d="M34.37 144.7C32.6 144.7 32.01 145.07 32.01 145.99C32.01 146.67 32.45 147.3 33.91 147.36C34.8045 147.556 35.6187 148.018 36.2453 148.685C36.8719 149.353 37.2815 150.195 37.42 151.1C37.86 153.33 40.14 152.49 40.05 150.63C39.93 148.12 37.76 144.74 34.37 144.7Z"></path><path id="Vector_22" fill="#001434" d="M20.3801 120.26C18.1301 108.79 13.2001 91.11 15.2601 87.08C16.9601 83.78 27.0201 85.08 32.4501 84.62C43.5601 84.62 55.4001 84.35 70.7701 84.53C76.1101 84.65 80.5001 83.99 82.1601 89.33C82.6801 90.99 84.5201 91.33 84.2401 88.84C83.4601 81.84 76.9901 82.05 70.8101 81.92C59.8101 81.8 44.4801 81.92 38.6801 82.03C9.00013 82 8.85013 78.51 15.2401 108.85C16.3201 111.71 18.1301 125.52 19.8501 132.78C20.7601 136.63 21.3301 137.95 22.2901 137.69C23.2501 137.43 23.1401 136.19 22.4901 132.86C21.8401 129.53 20.6601 123 20.3801 120.26Z"></path><path id="Vector_23" fill="#001434" d="M21.92 95.09C19.36 100.19 19.49 103.09 20.92 104.46C22.72 106.2 27.71 104.93 31.4 104.78C39.19 104.46 39.31 100.28 34.4 94.44C29.49 88.6 25.67 87.63 21.92 95.09ZM34.69 100.82C34.51 102.14 29.22 102.48 26.81 102.64C22.73 102.92 21.34 102.47 24.19 96.37C26.62 91.15 28.86 91.37 32.36 96.11C33.49 97.66 34.84 99.66 34.69 100.82V100.82Z"></path><path id="Vector_24" fill="#001434" d="M74.6801 96.11C75.4201 96.11 75.7501 95.59 75.5101 94.47C75.3201 92.54 74.6401 91.02 73.3101 92.27C72.6201 92.92 73.4501 96.21 74.6801 96.11Z"></path><path id="Vector_25" fill="#001434" d="M73.5401 88.12C68.9501 89 66.8901 98.63 68.6501 100.32C70.6501 102.21 73.8701 101.26 76.9201 101.12C82.7601 100.84 83.3301 97.87 80.5501 93.55C77.6601 89.05 75.5901 87.73 73.5401 88.12ZM80.0001 97.8C79.4801 98.74 78.3301 98.8 77.2401 98.89C71.5801 99.31 67.7301 101.46 71.2401 93.18C74.6201 85.18 80.7201 96.53 80.0001 97.8Z"></path><path id="Vector_26" fill="#001434" d="M75.0501 96.55C73.8301 96.67 73.8501 98.46 75.3801 98.29C76.6401 98.11 76.5801 96.3 75.0501 96.55Z"></path></g></g></g></g></svg>